HIERARCHY
ROOT Spine
{
    OFFSET 0.0 0.0 -0.0
    CHANNELS 6 Xposition Yposition Zposition Zrotation Xrotation Yrotation
    JOINT ShoulderCenter
    {
        OFFSET 0.0 28.435182571411133 0.0
        CHANNELS 3 Zrotation Xrotation Yrotation
        JOINT LeftShoulder
        {
            OFFSET 18.452661514282227 0.0 0.0
            CHANNELS 3 Zrotation Xrotation Yrotation
            JOINT LeftElbow
            {
                OFFSET 29.938873291015625 0.0 0.0
                CHANNELS 3 Zrotation Xrotation Yrotation
                JOINT LeftHand
                {
                    OFFSET 31.802392959594727 0.0 0.0
                    CHANNELS 3 Zrotation Xrotation Yrotation
                    End Site
                    {
                        OFFSET 12.720956802368164 0.0 0.0
                    }
                }
            }
        }
        JOINT RightShoulder
        {
            OFFSET -18.452661514282227 0.0 0.0
            CHANNELS 3 Zrotation Xrotation Yrotation
            JOINT RightElbow
            {
                OFFSET -29.938873291015625 0.0 0.0
                CHANNELS 3 Zrotation Xrotation Yrotation
                JOINT RightHand
                {
                    OFFSET -31.802392959594727 0.0 0.0
                    CHANNELS 3 Zrotation Xrotation Yrotation
                    End Site
                    {
                        OFFSET -12.720956802368164 0.0 0.0
                    }
                }
            }
        }
        End Site
        {
            OFFSET 0.0 11.374073028564453 0.0
        }
    }
    JOINT LeftHip
    {
        OFFSET 15.881223837921777 -15.881223837921777 0.0
        CHANNELS 3 Zrotation Xrotation Yrotation
        JOINT LeftKnee
        {
            OFFSET 0.0 -39.30992126464844 0.0
            CHANNELS 3 Zrotation Xrotation Yrotation
            JOINT LeftFoot
            {
                OFFSET 0.0 -44.4995231628418 0.0
                CHANNELS 3 Zrotation Xrotation Yrotation
                End Site
                {
                    OFFSET 0.0 0.0 17.799808502197266
                }
            }
        }
    }
    JOINT RightHip
    {
        OFFSET -15.881223837921777 -15.881223837921777 0.0
        CHANNELS 3 Zrotation Xrotation Yrotation
        JOINT RightKnee
        {
            OFFSET 0.0 -39.30992126464844 0.0
            CHANNELS 3 Zrotation Xrotation Yrotation
            JOINT RightFoot
            {
                OFFSET 0.0 -44.4995231628418 0.0
                CHANNELS 3 Zrotation Xrotation Yrotation
                End Site
                {
                    OFFSET 0.0 0.0 17.799808502197266
                }
            }
        }
    }
}
MOTION
Frames: 8
Frame Time: 0.03333333333333333
4.900000095367432 8.299999237060547 51.70000076293945 -0.20174467072081279 -4.63002367838506 3.7503455558853775 2.5830399911740817e-08 7.355031830364797e-08 1.2864388838919578 86.27950184717463 -15.25878184975617 -177.32913144257654 2.485597753829701e-06 2.6378602444303325e-06 90.97161084363196 0.0 0.0 3.1805546814635168e-15 -98.9125263281946 -36.84640273941005 171.74202395011284 -2.836679926263036e-07 -6.807144422090135e-07 -103.62193144006812 0.0 0.0 -3.1805546814635168e-15 3.1343276092803385 15.21975027765469 -47.16977947765785 10.759092114841435 -11.748649678443174 35.974716581311824 -5.086337335643738e-33 7.951386703658791e-16 7.330184617435448e-16 -0.8952813954887193 9.028574759247237 21.707397999385492 -5.913355556587826 -4.836184757691858 -8.57017709006589 4.913919120876153e-33 3.9756933518293955e-16 -1.4163407565892221e-15
4.900000095367432 8.299999237060547 51.70000076293945 -0.2017446899865556 -4.630023525329061 3.769021823587342 1.6481195844183323e-08 -3.184370319362624e-08 1.1111544936298519 86.23735985142852 -14.938123538163428 -177.52400073715802 -5.1092038183924314e-06 -1.9581333892740427e-07 91.17888270235528 0.0 6.3611093629270335e-15 0.0 -98.32080465330216 -36.33538957509163 172.50205801206388 4.27676763570008e-06 -2.629909433842899e-06 -104.59424596650369 -6.361109362927033e-15 0.0 0.0 3.139400855353948 15.218727670967159 -47.18910444324059 10.665865047363061 -11.837811030232537 36.00776375401326 -3.975693351829396e-16 -2.155227684594804e-34 6.212020862233431e-17 -1.0239741034994634 9.176070552280745 22.166938035503968 -5.945591557823113 -5.089192914916678 -9.114225128808929 0.0 0.0 -2.857529596627378e-16
4.900000095367432 8.299999237060547 51.79999923706055 -0.2017446821223953 -4.630015803852782 3.7690209598795756 2.0629465836316844e-08 -2.8497295420786928e-08 1.1111557771329934 86.40114111787045 -14.897581070661825 -177.7097501704621 6.990115942650258e-06 -1.1886843958247265e-06 91.38160834084789 1.7655625192200634e-31 -6.361109362927033e-15 3.1805546814635164e-15 -98.21262771047486 -35.500254668034145 172.82495212885823 3.298624599557693e-06 5.548872501599782e-07 -105.40311621893412 0.0 0.0 0.0 3.150467445811253 15.368447278967048 -47.00712101145231 10.734251914005656 -11.979974341288726 36.581947856412974 -1.9878466759146977e-16 6.465683053784412e-34 -3.7272125173400585e-16 -1.023974719570428 9.176063414870152 21.760366927726494 -5.909428089841415 -5.131180119400965 -9.212874913634971 2.069018577211012e-33 -9.93923337957349e-17 2.3854160110976376e-15
4.900000095367432 8.299999237060547 51.79999923706055 -0.2017446821223953 -4.630015803852782 3.7690209598795756 1.2239245573307138e-08 -1.7072157404907656e-07 1.0985182265288422 86.40440149780616 -14.70937933181072 -177.73506307041654 -3.060923563838576e-06 -9.98189682602836e-07 91.25439358827089 0.0 0.0 3.1805546814635168e-15 -98.0292277210435 -34.07171986509243 173.18734044535762 -1.0993549558344575e-06 5.024197697436956e-07 -106.28214254660894 0.0 0.0 0.0 3.308353423490169 15.356586463150514 -47.25836493939762 10.48325561428985 -12.221265519002316 36.86605258289498 0.0 0.0 1.242404172446686e-16 -1.023974719570428 9.176063414870152 21.760366927726494 -5.909428089841415 -5.131180119400965 -9.212874913634971 2.069018577211012e-33 -9.93923337957349e-17 2.3854160110976376e-15
4.900000095367432 8.299999237060547 51.70000076293945 -0.20174468139903295 -4.429533203067175 4.004723231711466 4.593426661813992e-09 7.263548339167446e-08 0.8714817724938074 86.43960911137648 -14.73049435467022 -177.52948774320674 -3.060923563838576e-06 -9.98189682602836e-07 91.25439358827089 0.0 0.0 3.1805546814635168e-15 -98.15415396890229 -33.62183453607988 173.222951361529 -7.908816729502451e-07 1.9637278107057413e-06 -106.32989964506153 6.3611093629270335e-15 6.3611093629270335e-15 -3.531125038440127e-31 3.186385151869621 15.005993062054015 -46.633878229667154 10.487017822521468 -12.156190430885887 36.41245585933899 3.771648448040907e-35 1.2424041724466862e-17 -3.4787316828507215e-16 -0.9993451671914514 8.980234225998188 21.924708621994863 -6.061405460824334 -5.031920978561702 -9.056079178671204 7.004489974933113e-34 9.93923337957349e-17 -8.075627120903461e-16
5.0 8.199999809265137 51.70000076293945 0.20174469753503238 -4.4295337884279125 4.758490324616287 -2.423477308854516e-08 -3.128757239696778e-08 0.14751497407794867 85.85678270441375 -14.570511822126402 -177.3821492333546 -1.6853390380159815e-06 -5.139896923309216e-06 91.04116706004577 0.0 0.0 -3.1805546814635168e-15 -98.82831123286019 -34.00845139604344 173.73413549636106 -5.5644234750360186e-06 -2.1769433643074167e-06 -105.50212990861449 3.531125038440127e-31 6.3611093629270335e-15 -6.3611093629270335e-15 3.293941632984231 14.96882163659308 -48.82889600490198 10.822908951115018 -12.193849070035036 39.146145263685355 0.0 0.0 1.3666445896913547e-16 -1.2746784828931037 9.16371749046768 21.460818730240355 -5.85824076694096 -5.127399164778119 -8.861825438124066 -6.250160285324932e-34 9.93923337957349e-17 7.20594420019078e-16
5.0 8.299999237060547 51.70000076293945 2.8913727576523477e-09 -4.429560548292002 4.044027416396132 8.657717995821093e-10 -1.6909651485046434e-07 0.677374120457164 86.03665450421784 -14.57193409527832 -177.55299134324812 3.8948204524438375e-07 -1.729971742322832e-07 91.22121419918759 -3.531125038440127e-31 -6.3611093629270335e-15 -6.3611093629270335e-15 -98.57679294127152 -33.845974768004346 173.46831006510178 -9.075931474394317e-07 -1.7942735140788217e-06 -103.44440022066615 0.0 6.3611093629270335e-15 0.0 2.992298194809943 15.018836953521811 -47.03913229716909 10.829601752619963 -12.174760289141702 37.38717952308369 0.0 0.0 -1.1181637552020177e-16 -1.1962808087662542 8.994828504575198 21.668948146366795 -5.924991033731131 -5.113185504948239 -9.026624040775365 0.0 0.0 3.7272125173400595e-16
5.0 8.299999237060547 51.70000076293945 1.1548591771096644e-08 -4.630052623223014 4.049844647128953 -5.926343080653631e-09 4.3914153412169234e-08 0.9898520271548817 86.06891043118422 -14.901248539437033 -177.3763270888002 -3.4031755997858295e-08 1.3140679086123368e-07 90.85922323000669 1.7655625192200634e-31 -6.361109362927033e-15 3.1805546814635164e-15 -98.536513588514 -33.58625956905544 173.54240256890122 -2.5723081912109113e-07 4.468776170006661e-06 -101.633744408656 -6.3611093629270335e-15 6.3611093629270335e-15 -3.1805546814635164e-15 3.0108462851945355 15.218249621406592 -47.055996334761694 10.75073041229606 -12.089942058835677 37.04933356936496 3.232841526892206e-35 1.2424041724466862e-17 -2.981770013872047e-16 -1.1818648275044568 9.194898406705384 21.70484052682854 -5.928334307038891 -5.1093053667825865 -9.074712194078012 0.0 0.0 1.577853299007292e-15
